<?xml version="1.0" encoding="UTF-8" standalone="no"?>
<!-- Created with Inkscape (http://www.inkscape.org/) -->

<svg
   xmlns:dc="http://purl.org/dc/elements/1.1/"
   xmlns:cc="http://creativecommons.org/ns#"
   xmlns:rdf="http://www.w3.org/1999/02/22-rdf-syntax-ns#"
   xmlns:svg="http://www.w3.org/2000/svg"
   xmlns="http://www.w3.org/2000/svg"
   xmlns:sodipodi="http://sodipodi.sourceforge.net/DTD/sodipodi-0.dtd"
   xmlns:inkscape="http://www.inkscape.org/namespaces/inkscape"
   width="500"
   height="500"
   viewBox="0 0 132.29166 132.29167"
   version="1.1"
   id="svg8046"
   inkscape:version="0.92.3 (2405546, 2018-03-11)"
   sodipodi:docname="background.svg">
  <defs
     id="defs8040" />
  <sodipodi:namedview
     id="base"
     pagecolor="#fdfbbf"
     bordercolor="#666666"
     borderopacity="1.0"
     inkscape:pageopacity="0"
     inkscape:pageshadow="2"
     inkscape:zoom="1.4"
     inkscape:cx="468.96525"
     inkscape:cy="237.05598"
     inkscape:document-units="mm"
     inkscape:current-layer="layer3"
     showgrid="false"
     inkscape:snap-global="true"
     units="px"
     inkscape:snap-bbox="true"
     inkscape:bbox-nodes="true"
     inkscape:window-width="1920"
     inkscape:window-height="1075"
     inkscape:window-x="0"
     inkscape:window-y="0"
     inkscape:window-maximized="0">
    <inkscape:grid
       type="xygrid"
       id="grid8896" />
  </sodipodi:namedview>
  <metadata
     id="metadata8043">
    <rdf:RDF>
      <cc:Work
         rdf:about="">
        <dc:format>image/svg+xml</dc:format>
        <dc:type
           rdf:resource="http://purl.org/dc/dcmitype/StillImage" />
        <dc:title></dc:title>
      </cc:Work>
    </rdf:RDF>
  </metadata>
  <g
     inkscape:groupmode="layer"
     id="layer3"
     inkscape:label="Layer 1">
    <path
       inkscape:connector-curvature="0"
       id="path330-7"
       style="display:inline;fill:#ffffff;fill-opacity:1;fill-rule:nonzero;stroke:none;stroke-width:0.14988621"
       d="m 120.89216,13.248786 0.10861,0.992269 -1.05338,-0.353024 -1.0537,0.353024 0.10898,-0.992269 -0.75961,-0.87322 1.12034,-0.16081 0.58408,-0.992112 0.58408,0.992112 1.12046,0.16081 z m 10.82646,0.337277 c 0.36957,-0.804695 0.46495,-1.634963 0.46495,-1.634963 0,0 -0.17725,-0.269456 -1.16429,0.329738 -0.81707,0.495749 -1.04963,1.96644 -1.10554,2.457725 l -1.67598,-1.452887 c -0.14027,-0.121624 -0.3385,-0.166787 -0.52335,-0.119686 l -3.42029,0.878158 c 0.27591,-0.78589 0.0845,-1.432923 0.0845,-1.432923 5.05805,-1.398792 4.76168,-4.0224049 4.76168,-4.0224049 -2.16748,1.2371218 -2.44057,1.1760856 -2.44057,1.1760856 0,0 1.08894,-0.6236227 2.08154,-1.3042235 2.02677,-1.3895308 1.08479,-3.0393959 1.08479,-3.0393959 -1.71979,1.56396 -2.47073,1.9722207 -2.47073,1.9722207 1.44763,-0.8966459 2.11203,-2.1801828 2.66179,-3.0385165 0.54913,-0.859195 0.23641,-2.5400272 -1.07993,-1.0337646 -1.79075,2.0491632 -5.37466,3.392701 -5.37466,3.392701 -0.88855,1.7827662 -1.99876,2.6376369 -2.70014,3.0265314 l -0.16781,-0.4721987 -0.41619,0.3269964 -0.0637,-0.179052 -0.23999,0.073991 c 0.1203,-0.1862923 0.089,-0.4980867 0.089,-0.4980867 -0.0241,0.093839 -0.1312,0.2272078 -0.24343,0.3476652 0,-0.1669609 -0.0112,-0.3297384 -0.032,-0.4850645 -0.0953,-0.7002659 -0.29762,-1.1993538 -0.75992,-1.577984 -0.18386,-0.1502653 -0.39627,-0.2791043 -0.62107,-0.4153449 -0.76833,-0.4655379 -1.02914,-0.7021465 -0.96095,-1.1014451 0.057,-0.3345184 0.19696,-0.8648539 0.53547,-1.5758237 0.18122,-0.1370826 0.69005,-0.5638677 1.16569,-1.3506369 0.34827,-0.5753094 0.155,-1.7215881 -0.62448,-2.13881277 -0.77965,-0.41680305 -1.73158,-0.11968512 -1.73158,-0.11968512 0,0 -0.92147,-1.26587453 -2.4121,-0.68884253 0,0 1.07275,1.10160342 1.37378,1.49888072 l 1.65318,-0.069773 c 0,0 -1.8562,1.4136963 -3.31408,0.012311 0,0 0.14127,1.9908688 2.26193,1.0606543 0,0 -0.032,0.7270328 0.1336,1.2062971 -0.40157,0.849809 -0.57226,1.5071228 -0.64403,1.9288464 -0.1101,0.6460316 0.0691,1.2319024 0.53281,1.7411136 0.34437,0.3781916 0.78867,0.6474708 1.14549,0.863836 0.17442,0.1054509 0.33909,0.2053603 0.43464,0.2834625 0.24544,0.200597 0.31036,0.8369279 0.18876,1.4742761 -0.18498,-0.034634 -0.38833,-0.086114 -0.4778,-0.1553614 0,0 0.17498,0.2674182 0.39065,0.3501427 l -0.23995,0.07381 0.0635,0.179332 -0.54349,-0.03146 0.17745,0.499827 c -0.74907,0.09244 -2.2793,0.08788 -4.25991,-0.9128689 l 0.004,0.0089 c 0,0 -3.7375,0.9117079 -6.48748,0.2614969 -2.02159,-0.4782825 -1.19586,1.044447 -0.20441,1.428719 0.99104,0.384413 2.34641,1.04533 4.08298,0.961163 0,0 -0.86435,0.08945 -3.24666,-0.21116 0,0 0.30088,1.847582 2.81787,1.837598 1.23279,-0.0052 2.50616,-0.108956 2.50616,-0.108956 0,0 -0.17991,0.200441 -2.71227,0.411021 0,0 1.44231,2.26913 6.39832,0.583252 l 0.015,-0.01406 c 0,0 0.69906,1.652889 2.94202,1.639727 v 7.08537 0 c -0.0435,0.0036 -0.26235,0.007 -0.304,0.01051 -0.31208,0.02548 -0.59851,0.06555 -0.84149,0.118098 -0.45186,0.09824 -0.70087,0.229806 -0.70087,0.37023 0,0.14095 0.24901,0.272338 0.70087,0.370389 0.005,0.0011 0.0135,0.0036 0.019,0.0036 v 1.712186 c 0,0.09895 0.17404,0.191337 0.48997,0.259738 0.31346,0.06802 0.72976,0.105628 1.17279,0.105628 0.44274,0 0.85936,-0.03761 1.17253,-0.105628 0.31611,-0.06837 0.48995,-0.160811 0.48995,-0.259738 v -1.50648 c -0.61501,0.03268 -1.26341,-0.04956 -1.36095,-0.06257 0.52083,-0.01406 1.00273,-0.06501 1.37975,-0.1471 0.0135,-0.0035 0.0279,-0.0052 0.0409,-0.0089 0.006,-0.0017 0.0152,-0.0035 0.0216,-0.0052 0.005,-0.0016 0.0112,-0.0035 0.0169,-0.0035 0.0104,-0.0017 0.0194,-0.0052 0.0287,-0.007 0.004,-0.0011 0.005,-0.0017 0.0104,-0.0017 0.0112,-0.0017 0.0225,-0.0052 0.0335,-0.0089 0,0 0.004,0 0.004,-0.0011 0.0484,-0.01225 0.0937,-0.02582 0.13617,-0.03955 0.2664,-0.08558 0.40979,-0.187294 0.40979,-0.294025 0,-0.140422 -0.2487,-0.27204 -0.70071,-0.370233 -0.2428,-0.05272 -0.52911,-0.09261 -0.84136,-0.118098 0,0 -0.0421,-0.01406 -0.27415,-0.02407 v -7.19847 c 0.19074,-0.04043 0.37667,-0.09086 0.58082,-0.153602 l 0.43601,-0.134272 c 0.23894,-0.07363 0.46059,-0.155361 0.66577,-0.243393 0,0 0.44384,-0.203217 0.62405,-0.314712 0.20533,-0.120911 0.38539,-0.247733 0.54309,-0.37791 0.0423,-0.0016 0.0851,-0.007 0.12717,-0.01776 l 4.22153,-1.0838 1.77569,1.539656 c 0.10649,0.09209 0.24158,0.137785 0.37654,0.137785 0.0795,0 0.15857,-0.01581 0.23179,-0.04798 1.96832,-0.30139 2.45994,-2.688533 2.45994,-2.688533 z" />
    <path
       d="m 93.903698,40.236279 0.10861,0.992269 -1.05338,-0.353024 -1.0537,0.353024 0.10898,-0.992269 -0.75961,-0.87322 1.12034,-0.16081 0.58408,-0.992112 0.58408,0.992112 1.12046,0.16081 z m 10.826462,0.337277 c 0.36957,-0.804695 0.46495,-1.634963 0.46495,-1.634963 0,0 -0.17725,-0.269456 -1.16429,0.329738 -0.81707,0.495749 -1.04963,1.96644 -1.10554,2.457725 l -1.67598,-1.452887 c -0.14027,-0.121624 -0.3385,-0.166787 -0.52335,-0.119686 l -3.420292,0.878158 c 0.27591,-0.78589 0.0845,-1.432923 0.0845,-1.432923 5.058052,-1.398792 4.761682,-4.022404 4.761682,-4.022404 -2.167482,1.237121 -2.440572,1.176085 -2.440572,1.176085 0,0 1.088942,-0.623623 2.081542,-1.304223 2.02677,-1.389531 1.08479,-3.039396 1.08479,-3.039396 -1.71979,1.56396 -2.47073,1.97222 -2.47073,1.97222 1.44763,-0.896645 2.11203,-2.180182 2.66179,-3.038516 0.54913,-0.859195 0.23641,-2.540027 -1.07993,-1.033765 -1.79075,2.049164 -5.374662,3.392701 -5.374662,3.392701 -0.88855,1.782767 -1.99876,2.637637 -2.70014,3.026532 l -0.16781,-0.472199 -0.41619,0.326996 -0.0637,-0.179052 -0.23999,0.07399 c 0.1203,-0.186292 0.089,-0.498086 0.089,-0.498086 -0.0241,0.09384 -0.1312,0.227208 -0.24343,0.347665 0,-0.166961 -0.0112,-0.329738 -0.032,-0.485065 -0.0953,-0.700265 -0.29762,-1.199353 -0.75992,-1.577984 -0.18386,-0.150265 -0.39627,-0.279104 -0.62107,-0.415344 -0.76833,-0.465538 -1.02914,-0.702147 -0.96095,-1.101446 0.057,-0.334518 0.19696,-0.864853 0.53547,-1.575823 0.18122,-0.137083 0.69005,-0.563868 1.16569,-1.350637 0.34827,-0.57531 0.155,-1.721588 -0.62448,-2.138813 -0.77965,-0.416803 -1.73158,-0.119685 -1.73158,-0.119685 0,0 -0.92147,-1.265875 -2.4121,-0.688843 0,0 1.07275,1.101604 1.37378,1.498881 l 1.65318,-0.06977 c 0,0 -1.8562,1.413696 -3.31408,0.01231 0,0 0.14127,1.990869 2.26193,1.060654 0,0 -0.032,0.727033 0.1336,1.206298 -0.40157,0.849809 -0.57226,1.507122 -0.64403,1.928846 -0.1101,0.646032 0.0691,1.231902 0.53281,1.741114 0.34437,0.378191 0.78867,0.64747 1.14549,0.863836 0.17442,0.10545 0.33909,0.20536 0.43464,0.283462 0.24544,0.200597 0.31036,0.836928 0.18876,1.474276 -0.18498,-0.03463 -0.38833,-0.08611 -0.4778,-0.155361 0,0 0.17498,0.267418 0.39065,0.350142 l -0.23995,0.07381 0.0635,0.179332 -0.54349,-0.03146 0.17745,0.499827 c -0.74907,0.09244 -2.2793,0.08788 -4.25991,-0.912868 l 0.004,0.0089 c 0,0 -3.7375,0.911707 -6.48748,0.261496 -2.02159,-0.478282 -1.19586,1.044447 -0.20441,1.428719 0.99104,0.384413 2.34641,1.04533 4.08298,0.961163 0,0 -0.86435,0.08945 -3.24666,-0.21116 0,0 0.30088,1.847582 2.81787,1.837598 1.23279,-0.0052 2.50616,-0.108956 2.50616,-0.108956 0,0 -0.17991,0.200441 -2.71227,0.411021 0,0 1.44231,2.26913 6.39832,0.583252 l 0.015,-0.01406 c 0,0 0.69906,1.652889 2.94202,1.639727 v 7.08537 0 c -0.0435,0.0036 -0.26235,0.007 -0.304,0.01051 -0.31208,0.02548 -0.59851,0.06555 -0.84149,0.118098 -0.45186,0.09824 -0.70087,0.229806 -0.70087,0.37023 0,0.14095 0.24901,0.272338 0.70087,0.370389 0.005,0.0011 0.0135,0.0036 0.019,0.0036 v 1.712186 c 0,0.09895 0.17404,0.191337 0.48997,0.259738 0.31346,0.06802 0.72976,0.105628 1.17279,0.105628 0.44274,0 0.85936,-0.03761 1.17253,-0.105628 0.31611,-0.06837 0.48995,-0.160811 0.48995,-0.259738 v -1.50648 c -0.61501,0.03268 -1.26341,-0.04956 -1.36095,-0.06257 0.52083,-0.01406 1.00273,-0.06501 1.37975,-0.1471 0.0135,-0.0035 0.0279,-0.0052 0.0409,-0.0089 0.006,-0.0017 0.0152,-0.0035 0.0216,-0.0052 0.005,-0.0016 0.0112,-0.0035 0.0169,-0.0035 0.0104,-0.0017 0.0194,-0.0052 0.0287,-0.007 0.004,-0.0011 0.005,-0.0017 0.0104,-0.0017 0.0112,-0.0017 0.0225,-0.0052 0.0335,-0.0089 0,0 0.004,0 0.004,-0.0011 0.0484,-0.01225 0.0937,-0.02582 0.13617,-0.03955 0.2664,-0.08558 0.40979,-0.187294 0.40979,-0.294025 0,-0.140422 -0.2487,-0.27204 -0.70071,-0.370233 -0.2428,-0.05272 -0.52911,-0.09261 -0.84136,-0.118098 0,0 -0.0421,-0.01406 -0.27415,-0.02407 v -7.19847 c 0.19074,-0.04043 0.37667,-0.09086 0.58082,-0.153602 l 0.43601,-0.134272 c 0.23894,-0.07363 0.46059,-0.155361 0.66577,-0.243393 0,0 0.44384,-0.203217 0.62405,-0.314712 0.20533,-0.120911 0.38539,-0.247733 0.54309,-0.37791 0.0423,-0.0016 0.0851,-0.007 0.12717,-0.01776 l 4.221532,-1.0838 1.77569,1.539656 c 0.10649,0.09209 0.24158,0.137785 0.37654,0.137785 0.0795,0 0.15857,-0.01581 0.23179,-0.04798 1.96832,-0.30139 2.45994,-2.688533 2.45994,-2.688533 z"
       style="display:inline;fill:#ffffff;fill-opacity:1;fill-rule:nonzero;stroke:none;stroke-width:0.14988621"
       id="path12652"
       inkscape:connector-curvature="0" />
    <path
       inkscape:connector-curvature="0"
       id="path12654"
       style="display:inline;fill:#ffffff;fill-opacity:1;fill-rule:nonzero;stroke:none;stroke-width:0.14988621"
       d="m 67.974661,66.165455 0.10861,0.992269 -1.05338,-0.353024 -1.0537,0.353024 0.10898,-0.992269 -0.75961,-0.87322 1.12034,-0.16081 0.58408,-0.992112 0.58408,0.992112 1.12046,0.16081 z m 10.826462,0.337277 c 0.36957,-0.804695 0.46495,-1.634963 0.46495,-1.634963 0,0 -0.17725,-0.269456 -1.16429,0.329738 -0.81707,0.495749 -1.04963,1.96644 -1.10554,2.457725 l -1.67598,-1.452887 c -0.14027,-0.121624 -0.3385,-0.166787 -0.52335,-0.119686 l -3.420292,0.878158 c 0.27591,-0.78589 0.0845,-1.432923 0.0845,-1.432923 5.058052,-1.398792 4.761682,-4.022404 4.761682,-4.022404 -2.167482,1.237121 -2.440572,1.176085 -2.440572,1.176085 0,0 1.088942,-0.623623 2.081542,-1.304223 2.02677,-1.389531 1.08479,-3.039396 1.08479,-3.039396 -1.71979,1.56396 -2.47073,1.97222 -2.47073,1.97222 1.44763,-0.896645 2.11203,-2.180182 2.66179,-3.038516 0.54913,-0.859195 0.23641,-2.540027 -1.07993,-1.033765 -1.79075,2.049164 -5.374662,3.392701 -5.374662,3.392701 -0.88855,1.782767 -1.99876,2.637637 -2.70014,3.026532 l -0.16781,-0.472199 -0.41619,0.326996 -0.0637,-0.179052 -0.23999,0.07399 c 0.1203,-0.186292 0.089,-0.498086 0.089,-0.498086 -0.0241,0.09384 -0.1312,0.227208 -0.24343,0.347665 0,-0.166961 -0.0112,-0.329738 -0.032,-0.485065 -0.0953,-0.700265 -0.29762,-1.199353 -0.75992,-1.577984 -0.18386,-0.150265 -0.39627,-0.279104 -0.62107,-0.415344 -0.76833,-0.465538 -1.02914,-0.702147 -0.96095,-1.101446 0.057,-0.334518 0.19696,-0.864853 0.53547,-1.575823 0.18122,-0.137083 0.69005,-0.563868 1.16569,-1.350637 0.34827,-0.57531 0.155,-1.721588 -0.62448,-2.138813 -0.77965,-0.416803 -1.73158,-0.119685 -1.73158,-0.119685 0,0 -0.92147,-1.265875 -2.4121,-0.688843 0,0 1.07275,1.101604 1.37378,1.498881 l 1.65318,-0.06977 c 0,0 -1.8562,1.413696 -3.31408,0.01231 0,0 0.14127,1.990869 2.26193,1.060654 0,0 -0.032,0.727033 0.1336,1.206298 -0.40157,0.849809 -0.57226,1.507122 -0.64403,1.928846 -0.1101,0.646032 0.0691,1.231902 0.53281,1.741114 0.34437,0.378191 0.78867,0.64747 1.14549,0.863836 0.17442,0.10545 0.33909,0.20536 0.43464,0.283462 0.24544,0.200597 0.31036,0.836928 0.18876,1.474276 -0.18498,-0.03463 -0.38833,-0.08611 -0.4778,-0.155361 0,0 0.17498,0.267418 0.39065,0.350142 l -0.23995,0.07381 0.0635,0.179332 -0.54349,-0.03146 0.17745,0.499827 c -0.74907,0.09244 -2.2793,0.08788 -4.25991,-0.912868 l 0.004,0.0089 c 0,0 -3.7375,0.911707 -6.48748,0.261496 -2.02159,-0.478282 -1.19586,1.044447 -0.20441,1.428719 0.99104,0.384413 2.34641,1.04533 4.08298,0.961163 0,0 -0.86435,0.08945 -3.24666,-0.21116 0,0 0.30088,1.847582 2.81787,1.837598 1.23279,-0.0052 2.50616,-0.108956 2.50616,-0.108956 0,0 -0.17991,0.200441 -2.71227,0.411021 0,0 1.44231,2.26913 6.39832,0.583252 l 0.015,-0.01406 c 0,0 0.69906,1.652889 2.94202,1.639727 v 7.08537 0 c -0.0435,0.0036 -0.26235,0.007 -0.304,0.01051 -0.31208,0.02548 -0.59851,0.06555 -0.84149,0.118098 -0.45186,0.09824 -0.70087,0.229806 -0.70087,0.37023 0,0.14095 0.24901,0.272338 0.70087,0.370389 0.005,0.0011 0.0135,0.0036 0.019,0.0036 v 1.712186 c 0,0.09895 0.17404,0.191337 0.48997,0.259738 0.31346,0.06802 0.72976,0.105628 1.17279,0.105628 0.44274,0 0.85936,-0.03761 1.17253,-0.105628 0.31611,-0.06837 0.48995,-0.160811 0.48995,-0.259738 v -1.50648 c -0.61501,0.03268 -1.26341,-0.04956 -1.36095,-0.06257 0.52083,-0.01406 1.00273,-0.06501 1.37975,-0.1471 0.0135,-0.0035 0.0279,-0.0052 0.0409,-0.0089 0.006,-0.0017 0.0152,-0.0035 0.0216,-0.0052 0.005,-0.0016 0.0112,-0.0035 0.0169,-0.0035 0.0104,-0.0017 0.0194,-0.0052 0.0287,-0.007 0.004,-0.0011 0.005,-0.0017 0.0104,-0.0017 0.0112,-0.0017 0.0225,-0.0052 0.0335,-0.0089 0,0 0.004,0 0.004,-0.0011 0.0484,-0.01225 0.0937,-0.02582 0.13617,-0.03955 0.2664,-0.08558 0.40979,-0.187294 0.40979,-0.294025 0,-0.140422 -0.2487,-0.27204 -0.70071,-0.370233 -0.2428,-0.05272 -0.52911,-0.09261 -0.84136,-0.118098 0,0 -0.0421,-0.01406 -0.27415,-0.02407 v -7.19847 c 0.19074,-0.04043 0.37667,-0.09086 0.58082,-0.153602 l 0.43601,-0.134272 c 0.23894,-0.07363 0.46059,-0.155361 0.66577,-0.243393 0,0 0.44384,-0.203217 0.62405,-0.314712 0.20533,-0.120911 0.38539,-0.247733 0.54309,-0.37791 0.0423,-0.0016 0.0851,-0.007 0.12717,-0.01776 l 4.221532,-1.0838 1.77569,1.539656 c 0.10649,0.09209 0.24158,0.137785 0.37654,0.137785 0.0795,0 0.15857,-0.01581 0.23179,-0.04798 1.96832,-0.30139 2.45994,-2.688533 2.45994,-2.688533 z" />
    <path
       d="m 40.986197,93.15295 0.10861,0.992269 -1.05338,-0.353024 -1.0537,0.353024 0.10898,-0.992269 -0.75961,-0.87322 1.12034,-0.16081 0.58408,-0.992112 0.58408,0.992112 1.12046,0.16081 z m 10.826462,0.337277 c 0.36957,-0.804695 0.46495,-1.634963 0.46495,-1.634963 0,0 -0.17725,-0.269456 -1.16429,0.329738 -0.81707,0.495749 -1.04963,1.96644 -1.10554,2.457725 l -1.67598,-1.452887 c -0.14027,-0.121624 -0.3385,-0.166787 -0.52335,-0.119686 l -3.420292,0.878158 c 0.27591,-0.78589 0.0845,-1.432923 0.0845,-1.432923 5.058052,-1.398792 4.761682,-4.022404 4.761682,-4.022404 -2.167482,1.237121 -2.440572,1.176085 -2.440572,1.176085 0,0 1.088942,-0.623623 2.081542,-1.304223 2.02677,-1.389531 1.08479,-3.039396 1.08479,-3.039396 -1.71979,1.56396 -2.47073,1.97222 -2.47073,1.97222 1.44763,-0.896645 2.11203,-2.180182 2.66179,-3.038516 0.54913,-0.859195 0.23641,-2.540027 -1.07993,-1.033765 -1.79075,2.049164 -5.374662,3.392701 -5.374662,3.392701 -0.88855,1.782767 -1.99876,2.637637 -2.70014,3.026532 l -0.16781,-0.472199 -0.41619,0.326996 -0.0637,-0.179052 -0.23999,0.07399 c 0.1203,-0.186292 0.089,-0.498086 0.089,-0.498086 -0.0241,0.09384 -0.1312,0.227208 -0.24343,0.347665 0,-0.166961 -0.0112,-0.329738 -0.032,-0.485065 -0.0953,-0.700265 -0.29762,-1.199353 -0.75992,-1.577984 -0.18386,-0.150265 -0.39627,-0.279104 -0.62107,-0.415344 -0.76833,-0.465538 -1.02914,-0.702147 -0.96095,-1.101446 0.057,-0.334518 0.19696,-0.864853 0.53547,-1.575823 0.18122,-0.137083 0.69005,-0.563868 1.16569,-1.350637 0.34827,-0.57531 0.155,-1.721588 -0.62448,-2.138813 -0.77965,-0.416803 -1.73158,-0.119685 -1.73158,-0.119685 0,0 -0.92147,-1.265875 -2.4121,-0.688843 0,0 1.07275,1.101604 1.37378,1.498881 l 1.65318,-0.06977 c 0,0 -1.8562,1.413696 -3.31408,0.01231 0,0 0.14127,1.990869 2.26193,1.060654 0,0 -0.032,0.727033 0.1336,1.206298 -0.40157,0.849809 -0.57226,1.507122 -0.64403,1.928846 -0.1101,0.646032 0.0691,1.231902 0.53281,1.741114 0.34437,0.378191 0.78867,0.64747 1.14549,0.863836 0.17442,0.10545 0.33909,0.20536 0.43464,0.283462 0.24544,0.200597 0.31036,0.836928 0.18876,1.474276 -0.18498,-0.03463 -0.38833,-0.08611 -0.4778,-0.155361 0,0 0.17498,0.267418 0.39065,0.350142 l -0.23995,0.07381 0.0635,0.179332 -0.54349,-0.03146 0.17745,0.499827 c -0.74907,0.09244 -2.2793,0.08788 -4.25991,-0.912868 l 0.004,0.0089 c 0,0 -3.7375,0.911707 -6.48748,0.261496 -2.02159,-0.478282 -1.19586,1.044447 -0.20441,1.428719 0.99104,0.384413 2.34641,1.04533 4.08298,0.961163 0,0 -0.86435,0.08945 -3.24666,-0.21116 0,0 0.30088,1.847582 2.81787,1.837598 1.23279,-0.0052 2.50616,-0.108956 2.50616,-0.108956 0,0 -0.17991,0.200441 -2.71227,0.411021 0,0 1.44231,2.26913 6.39832,0.583252 l 0.015,-0.01406 c 0,0 0.69906,1.652889 2.94202,1.639727 v 7.085374 0 c -0.0435,0.004 -0.26235,0.007 -0.304,0.0105 -0.31208,0.0255 -0.59851,0.0656 -0.84149,0.11809 -0.45186,0.0982 -0.70087,0.22981 -0.70087,0.37023 0,0.14095 0.24901,0.27234 0.70087,0.37039 0.005,0.001 0.0135,0.004 0.019,0.004 v 1.71219 c 0,0.099 0.17404,0.19134 0.48997,0.25974 0.31346,0.068 0.72976,0.10563 1.17279,0.10563 0.44274,0 0.85936,-0.0376 1.17253,-0.10563 0.31611,-0.0684 0.48995,-0.16081 0.48995,-0.25974 v -1.50648 c -0.61501,0.0327 -1.26341,-0.0496 -1.36095,-0.0626 0.52083,-0.0141 1.00273,-0.065 1.37975,-0.1471 0.0135,-0.003 0.0279,-0.005 0.0409,-0.009 0.006,-0.002 0.0152,-0.004 0.0216,-0.005 0.005,-0.002 0.0112,-0.004 0.0169,-0.004 0.0104,-0.002 0.0194,-0.005 0.0287,-0.007 0.004,-0.001 0.005,-0.002 0.0104,-0.002 0.0112,-0.002 0.0225,-0.005 0.0335,-0.009 0,0 0.004,0 0.004,-0.001 0.0484,-0.0122 0.0937,-0.0258 0.13617,-0.0395 0.2664,-0.0856 0.40979,-0.18729 0.40979,-0.29403 0,-0.14042 -0.2487,-0.27204 -0.70071,-0.37023 -0.2428,-0.0527 -0.52911,-0.0926 -0.84136,-0.1181 0,0 -0.0421,-0.0141 -0.27415,-0.0241 v -7.198467 c 0.19074,-0.04043 0.37667,-0.09086 0.58082,-0.153602 l 0.43601,-0.134272 c 0.23894,-0.07363 0.46059,-0.155361 0.66577,-0.243393 0,0 0.44384,-0.203217 0.62405,-0.314712 0.20533,-0.120911 0.38539,-0.247733 0.54309,-0.37791 0.0423,-0.0016 0.0851,-0.007 0.12717,-0.01776 l 4.221532,-1.0838 1.77569,1.539656 c 0.10649,0.09209 0.24158,0.137785 0.37654,0.137785 0.0795,0 0.15857,-0.01581 0.23179,-0.04798 1.96832,-0.30139 2.45994,-2.688533 2.45994,-2.688533 z"
       style="display:inline;fill:#ffffff;fill-opacity:1;fill-rule:nonzero;stroke:none;stroke-width:0.14988621"
       id="path12656"
       inkscape:connector-curvature="0" />
    <path
       inkscape:connector-curvature="0"
       id="path12658"
       style="display:inline;fill:#ffffff;fill-opacity:1;fill-rule:nonzero;stroke:none;stroke-width:0.14988621"
       d="m 15.057992,119.08211 0.10861,0.99227 -1.05338,-0.35303 -1.0537,0.35303 0.10898,-0.99227 -0.75961,-0.87322 1.12034,-0.16081 0.58408,-0.99211 0.58408,0.99211 1.12046,0.16081 z m 10.826462,0.33727 c 0.36957,-0.80469 0.46495,-1.63496 0.46495,-1.63496 0,0 -0.17725,-0.26945 -1.16429,0.32974 -0.81707,0.49575 -1.04963,1.96644 -1.10554,2.45772 l -1.67598,-1.45288 c -0.14027,-0.12163 -0.3385,-0.16679 -0.52335,-0.11969 l -3.420292,0.87816 c 0.27591,-0.78589 0.0845,-1.43292 0.0845,-1.43292 5.058052,-1.3988 4.761682,-4.02241 4.761682,-4.02241 -2.167482,1.23712 -2.440572,1.17609 -2.440572,1.17609 0,0 1.088942,-0.62363 2.081542,-1.30423 2.02677,-1.38953 1.08479,-3.03939 1.08479,-3.03939 -1.71979,1.56396 -2.47073,1.97222 -2.47073,1.97222 1.44763,-0.89665 2.11203,-2.18018 2.66179,-3.03852 0.54913,-0.85919 0.23641,-2.54002 -1.07993,-1.03376 -1.79075,2.04916 -5.374662,3.3927 -5.374662,3.3927 -0.88855,1.78277 -1.99876,2.63764 -2.70014,3.02653 l -0.16781,-0.4722 -0.41619,0.327 -0.0637,-0.17905 -0.23999,0.074 c 0.1203,-0.1863 0.089,-0.49809 0.089,-0.49809 -0.0241,0.0938 -0.1312,0.22721 -0.24343,0.34766 0,-0.16696 -0.0112,-0.32973 -0.032,-0.48506 -0.0953,-0.70027 -0.29762,-1.19935 -0.75992,-1.57798 -0.18386,-0.15027 -0.39627,-0.27911 -0.62107,-0.41535 -0.76833,-0.46554 -1.02914,-0.70215 -0.96095,-1.10144 0.057,-0.33452 0.19696,-0.86486 0.53547,-1.57583 0.18122,-0.13708 0.69005,-0.56387 1.16569,-1.35063 0.34827,-0.57531 0.155,-1.72159 -0.62448,-2.13882 -0.77965,-0.4168 -1.73158,-0.11968 -1.73158,-0.11968 0,0 -0.92147,-1.26588 -2.4120997,-0.68885 0,0 1.07275,1.10161 1.37378,1.49889 l 1.6531797,-0.0698 c 0,0 -1.8561997,1.41369 -3.3140797,0.0123 0,0 0.14127,1.99086 2.2619297,1.06065 0,0 -0.032,0.72703 0.1336,1.2063 -0.40157,0.84981 -0.57226,1.50712 -0.64403,1.92884 -0.1100997,0.64604 0.0691,1.23191 0.53281,1.74112 0.34437,0.37819 0.78867,0.64747 1.14549,0.86383 0.17442,0.10545 0.33909,0.20536 0.43464,0.28347 0.24544,0.20059 0.31036,0.83692 0.18876,1.47427 -0.18498,-0.0346 -0.38833,-0.0861 -0.4778,-0.15536 0,0 0.17498,0.26742 0.39065,0.35014 l -0.23995,0.0738 0.0635,0.17933 -0.54349,-0.0315 0.17745,0.49983 c -0.74907,0.0924 -2.2792997,0.0879 -4.2599097,-0.91287 l 0.004,0.009 c 0,0 -3.7375,0.91171 -6.48748003,0.2615 -2.02158997,-0.47828 -1.19586,1.04445 -0.20441,1.42872 0.99104003,0.38441 2.34641003,1.04533 4.08298003,0.96116 0,0 -0.86435,0.0894 -3.24666,-0.21116 0,0 0.30088,1.84758 2.81787,1.8376 1.23279,-0.005 2.50616,-0.10896 2.50616,-0.10896 0,0 -0.17991,0.20044 -2.71227,0.41102 0,0 1.44231,2.26913 6.3983197,0.58326 l 0.015,-0.0141 c 0,0 0.69906,1.65289 2.94202,1.63972 v 7.08538 0 c -0.0435,0.004 -0.26235,0.007 -0.304,0.0105 -0.31208,0.0255 -0.59851,0.0656 -0.84149,0.11809 -0.45186,0.0982 -0.70087,0.22981 -0.70087,0.37023 0,0.14095 0.24901,0.27234 0.70087,0.37039 0.005,0.001 0.0135,0.004 0.019,0.004 v 1.71219 c 0,0.099 0.17404,0.19134 0.48997,0.25974 0.31346,0.068 0.72976,0.10563 1.17279,0.10563 0.44274,0 0.85936,-0.0376 1.17253,-0.10563 0.31611,-0.0684 0.48995,-0.16081 0.48995,-0.25974 v -1.50648 c -0.61501,0.0327 -1.26341,-0.0496 -1.36095,-0.0626 0.52083,-0.0141 1.00273,-0.065 1.37975,-0.1471 0.0135,-0.003 0.0279,-0.005 0.0409,-0.009 0.006,-0.002 0.0152,-0.004 0.0216,-0.005 0.005,-0.002 0.0112,-0.004 0.0169,-0.004 0.0104,-0.002 0.0194,-0.005 0.0287,-0.007 0.004,-0.001 0.005,-0.002 0.0104,-0.002 0.0112,-0.002 0.0225,-0.005 0.0335,-0.009 0,0 0.004,0 0.004,-10e-4 0.0484,-0.0122 0.0937,-0.0258 0.13617,-0.0395 0.2664,-0.0856 0.40979,-0.18729 0.40979,-0.29403 0,-0.14042 -0.2487,-0.27204 -0.70071,-0.37023 -0.2428,-0.0527 -0.52911,-0.0926 -0.84136,-0.1181 0,0 -0.0421,-0.0141 -0.27415,-0.0241 v -7.19847 c 0.19074,-0.0404 0.37667,-0.0909 0.58082,-0.1536 l 0.43601,-0.13427 c 0.23894,-0.0736 0.46059,-0.15536 0.66577,-0.2434 0,0 0.44384,-0.20321 0.62405,-0.31471 0.20533,-0.12091 0.38539,-0.24773 0.54309,-0.37791 0.0423,-0.002 0.0851,-0.007 0.12717,-0.0178 l 4.221532,-1.0838 1.77569,1.53966 c 0.10649,0.0921 0.24158,0.13778 0.37654,0.13778 0.0795,0 0.15857,-0.0158 0.23179,-0.048 1.96832,-0.30139 2.45994,-2.68853 2.45994,-2.68853 z" />
  </g>
</svg>
