<?xml version="1.0" encoding="UTF-8" standalone="no"?>
<!-- Created with Inkscape (http://www.inkscape.org/) -->

<svg
   xmlns:dc="http://purl.org/dc/elements/1.1/"
   xmlns:cc="http://creativecommons.org/ns#"
   xmlns:rdf="http://www.w3.org/1999/02/22-rdf-syntax-ns#"
   xmlns:svg="http://www.w3.org/2000/svg"
   xmlns="http://www.w3.org/2000/svg"
   xmlns:sodipodi="http://sodipodi.sourceforge.net/DTD/sodipodi-0.dtd"
   xmlns:inkscape="http://www.inkscape.org/namespaces/inkscape"
   width="253.56891mm"
   height="116.79609mm"
   viewBox="0 0 253.56891 116.79609"
   version="1.1"
   id="svg3849"
   inkscape:version="0.92.3 (2405546, 2018-03-11)"
   sodipodi:docname="logo.svg">
  <defs
     id="defs3843" />
  <sodipodi:namedview
     id="base"
     pagecolor="#ffffff"
     bordercolor="#666666"
     borderopacity="1.0"
     inkscape:pageopacity="0.0"
     inkscape:pageshadow="2"
     inkscape:zoom="0.98994949"
     inkscape:cx="499.63509"
     inkscape:cy="123.31402"
     inkscape:document-units="mm"
     inkscape:current-layer="layer1"
     showgrid="false"
     fit-margin-top="0"
     fit-margin-left="0"
     fit-margin-right="0"
     fit-margin-bottom="0"
     units="mm"
     inkscape:window-width="1920"
     inkscape:window-height="1075"
     inkscape:window-x="0"
     inkscape:window-y="0"
     inkscape:window-maximized="0" />
  <metadata
     id="metadata3846">
    <rdf:RDF>
      <cc:Work
         rdf:about="">
        <dc:format>image/svg+xml</dc:format>
        <dc:type
           rdf:resource="http://purl.org/dc/dcmitype/StillImage" />
        <dc:title></dc:title>
      </cc:Work>
    </rdf:RDF>
  </metadata>
  <g
     inkscape:label="Layer 1"
     inkscape:groupmode="layer"
     id="layer1"
     transform="translate(18.683258,-0.47695323)">
    <g
       transform="translate(304.82325,16.308382)"
       id="g3841">
      <g
         transform="matrix(0.35277777,0,0,-0.35277777,-186.89902,45.915954)"
         id="g1220">
        <path
           inkscape:connector-curvature="0"
           id="path1222"
           style="fill:#eb4072;fill-opacity:1;fill-rule:nonzero;stroke:none"
           d="m 0,0 -2.58,-123.806 c -1.01,-0.028 -1.99,-0.077 -2.928,-0.157 -3.078,-0.208 -5.902,-0.577 -8.306,-1.095 -4.471,-0.965 -6.95,-2.336 -6.985,-3.861 -0.035,-1.525 2.383,-3.007 6.805,-4.171 0.058,-0.015 0.121,-0.031 0.183,-0.047 l -0.416,-18.561 c -0.025,-1.074 1.664,-2.114 4.756,-2.926 3.067,-0.807 7.155,-1.305 11.512,-1.402 4.357,-0.098 8.465,0.216 11.564,0.884 3.125,0.674 4.86,1.637 4.885,2.711 l 0.365,16.333 c -4.855,-0.176 -9.902,0.452 -12.207,0.793 0.063,0.067 0.127,0.135 0.188,0.205 4.605,0.102 8.853,0.537 12.256,1.269 0.135,0.03 0.269,0.06 0.404,0.089 0.072,0.016 0.143,0.035 0.215,0.052 0.057,0.013 0.117,0.026 0.174,0.04 0.095,0.024 0.189,0.046 0.285,0.07 0.029,0.008 0.06,0.015 0.09,0.022 0.113,0.028 0.222,0.058 0.33,0.086 0.012,0.004 0.021,0.006 0.033,0.009 0.479,0.127 0.928,0.259 1.348,0.397 2.642,0.87 4.078,1.939 4.105,3.096 0.033,1.526 -2.385,3.007 -6.805,4.171 -2.376,0.625 -5.183,1.12 -8.25,1.466 0,0 -1.175,0.112 -2.726,0.235 L 10.9,0.975" />
      </g>
      <g
         transform="matrix(0.35277777,0,0,-0.35277777,-181.37928,35.920032)"
         id="g1224">
        <path
           inkscape:connector-curvature="0"
           id="path1226"
           style="fill:#eb4072;fill-opacity:1;fill-rule:nonzero;stroke:none"
           d="m 0,0 0.861,-10.508 -10.289,3.937 -10.439,-3.527 1.275,10.465 -7.291,9.376 11.057,1.482 5.955,10.371 5.535,-10.597 10.992,-1.917 z m 95.762,-8.273 c 4.164,8.259 5.652,16.958 5.652,16.958 0,0 -1.56,2.954 -11.652,-2.757 C 81.406,1.202 78.145,-14.166 77.271,-19.315 L 61.775,-2.953 c -1.298,1.371 -3.214,1.972 -5.064,1.585 l -32.854,-6.87 c 0.881,6.302 -0.67,11.46 -0.67,11.46 62.448,6.88 60.557,34.316 60.557,34.316 -22.715,-10.487 -25.308,-9.531 -25.308,-9.531 0,0 11.418,5.291 21.96,11.29 21.53,12.249 14.37,30.654 14.37,30.654 C 76.02,55.515 68.176,52.099 68.176,52.099 c 15.258,7.742 23.34,20.447 29.779,28.826 6.432,8.383 5.461,26.387 -9.271,12.096 C 68.643,73.579 31.949,63.608 31.949,63.608 21.057,45.921 9.146,38.229 1.809,34.957 l -1.055,5.148 -4.473,-2.951 -0.398,1.952 -2.436,-0.499 c 1.401,1.816 1.487,5.124 1.487,5.124 -0.358,-0.957 -1.561,-2.231 -2.809,-3.366 0.203,1.75 0.305,3.47 0.289,5.128 -0.068,7.462 -1.424,12.933 -5.475,17.441 -1.611,1.79 -3.527,3.387 -5.554,5.077 -6.932,5.775 -9.188,8.56 -8.026,12.673 0.973,3.445 2.996,8.85 7.186,15.922 1.941,1.229 7.443,5.123 13.066,12.831 4.116,5.639 3.651,17.896 -3.451,23.173 -7.101,5.276 -16.771,3.253 -16.771,3.253 0,0 -7.442,14.356 -22.723,10.017 0,0 9.121,-12.801 11.568,-17.321 l 16.245,-1.176 c 0,0 -19.895,-12.695 -32.405,3.702 0,0 -1.09,-21.061 20.793,-13.746 0,0 -1.217,-7.591 -0.189,-12.816 -4.981,-8.456 -7.463,-15.159 -8.69,-19.501 -1.877,-6.654 -0.851,-13.012 3.051,-18.895 2.897,-4.368 6.904,-7.704 10.125,-10.386 1.572,-1.31 3.059,-2.549 3.897,-3.48 2.146,-2.391 1.996,-9.144 0.015,-15.695 -1.763,0.578 -3.689,1.352 -4.478,2.183 0,0 1.379,-3.01 3.384,-4.127 l -2.437,-0.498 0.4,-1.955 -5.275,0.956 1.117,-5.451 c -7.435,-0.104 -22.385,1.707 -40.502,14.502 l 0.018,-0.09 c 0,0 -37.657,-5.253 -63.731,4.744 -19.164,7.352 -12.978,-9.583 -3.767,-14.763 9.211,-5.176 21.638,-13.68 38.713,-14.802 0,0 -8.557,0.058 -31.469,5.964 0,0 0.65,-19.739 25.262,-22.54 12.052,-1.371 24.628,-1.748 24.628,-1.748 0,0 -2.009,-1.898 -27.015,-1.186 0,0 8.566,-27.397 69.162,-7.726 l 0.166,0.128 c 0,0 2.004,-20.423 22.018,-22.172 4.839,-0.058 8.703,0.438 10.927,0.502 0.83,0.132 1.67,0.281 2.53,0.455 l 3.843,0.788 c 2.108,0.432 4.076,0.955 5.912,1.552 0,0 3.987,1.406 5.637,2.241 3.5,1.677 6.156,3.728 8.166,5.959 l 37.682,7.881 16.418,-17.339 c 0.984,-1.04 2.283,-1.606 3.605,-1.688 0.783,-0.05 1.571,0.075 2.313,0.362 19.531,1.963 25.945,26.842 25.945,26.842 z" />
      </g>
      <g
         transform="matrix(0.35277777,0,0,-0.35277777,-305.63974,91.490609)"
         id="g1228">
        <path
           inkscape:connector-curvature="0"
           id="path1230"
           style="fill:#eb4072;fill-opacity:1;fill-rule:nonzero;stroke:none"
           d="m 0,0 c -7.471,-1.391 -14.934,-2.831 -22.391,-4.32 -5.39,26.958 -10.781,53.917 -16.172,80.877 -0.833,4.172 -4.027,6.806 -7.429,6.117 -3.401,-0.692 -5.311,-4.365 -4.447,-8.534 6.041,-29.169 12.082,-58.338 18.121,-87.506 0.867,-4.169 3.925,-6.813 7.127,-6.159 9.259,1.883 18.533,3.69 27.816,5.416 3.1,0.577 4.893,4.037 4.158,8.063 C 6.053,-2.023 3.133,0.583 0,0" />
      </g>
      <g
         transform="matrix(0.35277777,0,0,-0.35277777,-295.87288,79.486534)"
         id="g1232">
        <path
           inkscape:connector-curvature="0"
           id="path1234"
           style="fill:#eb4072;fill-opacity:1;fill-rule:nonzero;stroke:none"
           d="M 0,0 C 0.855,10.675 1.758,21.352 2.707,32.032 6.986,22.195 11.221,12.345 15.41,2.484 10.27,1.68 5.135,0.851 0,0 m 4.549,57.445 c -1.414,3.099 -3.897,4.699 -6.635,4.253 -3.725,-0.6 -4.65,-4.087 -4.871,-6.138 -2.939,-30.848 -5.477,-61.684 -7.613,-92.499 -0.114,-1.003 0.037,-2.297 0.138,-2.855 0.739,-4.12 3.789,-6.905 6.944,-6.355 2.617,0.461 4.314,2.813 4.554,6.287 0.655,8.486 1.34,16.974 2.057,25.464 7.207,1.209 14.42,2.372 21.641,3.489 3.322,-7.882 6.617,-15.77 9.881,-23.666 1.289,-3.155 3.636,-4.801 6.281,-4.412 3.269,0.484 5.281,4.011 4.678,8.227 -0.077,0.533 -0.346,1.74 -0.743,2.696 C 29.148,0.549 17.043,29.056 4.549,57.445" />
      </g>
      <g
         transform="matrix(0.35277777,0,0,-0.35277777,-261.6631,53.088985)"
         id="g1236">
        <path
           inkscape:connector-curvature="0"
           id="path1238"
           style="fill:#eb4072;fill-opacity:1;fill-rule:nonzero;stroke:none"
           d="m 0,0 c -3.139,-0.326 -4.463,-2.908 -5.014,-5.009 -4.879,-20.225 -9.523,-40.468 -13.933,-60.724 -9.008,18.633 -18.242,37.198 -27.701,55.694 -1.313,2.685 -3.59,4.085 -6.09,3.753 -3.321,-0.445 -5.483,-3.991 -4.92,-8.055 4.133,-29.99 8.263,-59.98 12.394,-89.97 0.561,-4.067 3.446,-6.916 6.567,-6.495 3.119,0.413 5.144,3.926 4.617,7.996 -2.424,18.509 -4.846,37.016 -7.27,55.523 6.647,-13.162 13.178,-26.359 19.594,-39.591 1.471,-3.18 3.945,-4.072 5.783,-3.855 1.116,0.136 3.793,0.887 4.709,5.08 3.157,14.404 6.432,28.803 9.827,43.195 1.996,-18.582 3.992,-37.165 5.988,-55.748 0.441,-4.08 3.236,-7.017 6.363,-6.688 3.129,0.321 5.26,3.771 4.85,7.855 C 12.732,-66.917 9.701,-36.798 6.668,-6.677 6.26,-2.588 3.332,0.35 0,0" />
      </g>
      <g
         transform="matrix(0.35277777,0,0,-0.35277777,-245.9948,73.325658)"
         id="g1240">
        <path
           inkscape:connector-curvature="0"
           id="path1242"
           style="fill:#eb4072;fill-opacity:1;fill-rule:nonzero;stroke:none"
           d="M 0,0 C 1.73,10.566 3.508,21.133 5.334,31.696 8.777,21.538 12.174,11.372 15.523,1.196 10.348,0.82 5.174,0.421 0,0 m 9.26,56.869 c -1.149,3.206 -3.487,5 -6.246,4.789 -3.75,-0.292 -4.957,-3.684 -5.35,-5.713 -5.465,-30.496 -10.529,-61.015 -15.191,-91.544 -0.194,-0.991 -0.151,-2.293 -0.098,-2.856 0.395,-4.17 3.195,-7.199 6.377,-6.91 2.635,0.241 4.519,2.44 5.045,5.885 1.351,8.403 2.732,16.805 4.144,25.205 7.264,0.605 14.532,1.165 21.801,1.679 2.654,-8.128 5.279,-16.263 7.873,-24.404 1.024,-3.25 3.221,-5.09 5.881,-4.917 3.293,0.209 5.584,3.561 5.332,7.81 -0.033,0.54 -0.201,1.763 -0.514,2.749 C 29.025,-1.873 19.342,27.538 9.26,56.869" />
      </g>
      <g
         transform="matrix(0.35277777,0,0,-0.35277777,-220.55416,67.05267)"
         id="g1244">
        <path
           inkscape:connector-curvature="0"
           id="path1246"
           style="fill:#eb4072;fill-opacity:1;fill-rule:nonzero;stroke:none"
           d="m 0,0 c -4.375,-0.171 -8.752,-0.359 -13.127,-0.563 -0.506,10.851 -1.012,21.703 -1.519,32.555 4.361,0.203 8.722,0.391 13.085,0.561 5.217,0.205 9.383,-6.67 9.69,-15.95 C 8.428,7.624 4.775,0.184 0,0 m 5.26,-13.185 c 9.254,3.262 15.25,14.971 14.857,30.154 -0.215,8.056 -2.392,15.483 -6.172,20.895 -4.091,5.871 -9.783,8.983 -15.959,8.741 -6.445,-0.251 -12.89,-0.54 -19.334,-0.863 -3.449,-0.174 -5.875,-3.514 -5.646,-7.769 1.592,-29.745 3.182,-59.489 4.773,-89.235 0.229,-4.249 2.848,-7.321 6.09,-7.16 3.238,0.163 5.539,3.484 5.342,7.734 -0.561,12.027 -1.121,24.055 -1.684,36.082 1.7,0.079 3.397,0.155 5.096,0.23 6.691,-12.962 13.242,-25.96 19.652,-38.998 1.594,-3.439 4.137,-3.733 5.161,-3.704 3.242,0.097 5.609,3.368 5.498,7.624 -0.024,0.901 -0.186,2.625 -1.012,4.122 -5.455,10.742 -11.01,21.459 -16.662,32.147" />
      </g>
      <g
         transform="matrix(0.35277777,0,0,-0.35277777,-192.73982,83.99461)"
         id="g1248">
        <path
           inkscape:connector-curvature="0"
           id="path1250"
           style="fill:#eb4072;fill-opacity:1;fill-rule:nonzero;stroke:none"
           d="M 0,0 C 0.031,4.091 -2.34,7.191 -5.516,7.203 -15.25,7.236 -24.984,7.185 -34.719,7.05 c 10.518,26.111 21.539,52.125 33.061,78.025 0.539,1.203 0.797,2.382 0.803,3.71 0.027,4.087 -2.471,7.191 -5.815,7.2 -12.445,0.032 -24.891,-0.066 -37.332,-0.295 -3.342,-0.059 -5.791,-3.202 -5.701,-7.292 0.094,-4.09 2.652,-7.11 5.965,-7.055 9.097,0.167 18.195,0.265 27.295,0.291 C -27.818,55.638 -38.688,29.531 -49.049,3.329 -49.527,2.11 -49.74,0.93 -49.707,-0.401 c 0.094,-4.084 2.539,-7.121 5.68,-7.056 12.82,0.251 25.642,0.354 38.463,0.31 C -2.422,-7.158 -0.029,-4.09 0,0" />
      </g>
      <g
         transform="matrix(0.35277777,0,0,-0.35277777,-164.7505,82.411591)"
         id="g1252">
        <path
           inkscape:connector-curvature="0"
           id="path1254"
           style="fill:#eb4072;fill-opacity:1;fill-rule:nonzero;stroke:none"
           d="m 0,0 c -8.295,0.446 -16.592,0.831 -24.893,1.154 0.401,10.272 0.801,20.544 1.202,30.817 6.007,-0.235 12.015,-0.5 18.019,-0.797 3.117,-0.157 5.727,2.801 5.936,6.736 0.207,3.935 -2.092,7.152 -5.241,7.306 -6.054,0.3 -12.111,0.567 -18.168,0.803 0.393,10.03 0.784,20.059 1.174,30.089 8.315,-0.323 16.627,-0.706 24.938,-1.148 3.201,-0.171 5.879,2.771 6.103,6.705 0.225,3.933 -2.127,7.16 -5.355,7.334 -10.393,0.551 -20.789,1.012 -31.188,1.383 -3.449,0.124 -6.152,-3.007 -6.289,-7.259 -0.943,-29.384 -1.888,-58.767 -2.834,-88.15 -0.133,-4.255 2.213,-7.539 5.459,-7.655 10.131,-0.36 20.258,-0.812 30.383,-1.356 3.035,-0.165 5.592,2.787 5.818,6.717 C 5.291,-3.387 3.068,-0.163 0,0" />
      </g>
      <g
         transform="matrix(0.35277777,0,0,-0.35277777,-140.6803,52.227537)"
         id="g1256">
        <path
           inkscape:connector-curvature="0"
           id="path1258"
           style="fill:#eb4072;fill-opacity:1;fill-rule:nonzero;stroke:none"
           d="m 0,0 c -3.332,0.3 -6.221,-2.684 -6.57,-6.771 -1.774,-20.564 -3.549,-41.127 -5.325,-61.691 -7.429,22.6 -15.222,45.155 -23.376,67.655 -0.008,0.021 -0.016,0.039 -0.024,0.06 -0.887,2.255 -2.762,3.75 -4.889,3.892 -3.337,0.226 -6.154,-2.819 -6.412,-6.918 -1.92,-30.212 -3.838,-60.424 -5.758,-90.636 -0.255,-4.096 1.997,-7.46 5.133,-7.672 3.135,-0.211 5.817,2.822 6.108,6.92 1.441,20.525 2.883,41.051 4.326,61.576 7.906,-22.422 15.455,-44.896 22.644,-67.413 0.016,-0.046 0.032,-0.093 0.049,-0.139 1.151,-2.988 3.127,-3.764 4.584,-3.894 3.235,-0.289 5.973,2.677 6.369,6.916 2.801,30.094 5.602,60.188 8.403,90.283 C 5.645,-3.743 3.336,-0.298 0,0" />
      </g>
      <g
         transform="matrix(0.35277777,0,0,-0.35277777,-124.405,83.339679)"
         id="g1260">
        <path
           inkscape:connector-curvature="0"
           id="path1262"
           style="fill:#eb4072;fill-opacity:1;fill-rule:nonzero;stroke:none"
           d="m 0,0 c -3.709,-4.617 -8.4,-6.407 -14.818,-5.68 -2.414,0.274 -4.828,0.543 -7.243,0.806 2.711,24.855 5.42,49.713 8.129,74.569 2.522,-0.275 5.041,-0.555 7.563,-0.84 C 3.109,67.79 13.461,62.192 9.281,29.143 7.521,15.085 4.465,5.564 0,0 m -4.787,82.823 c -4.547,0.515 -9.096,1.013 -13.647,1.493 -3.437,0.364 -6.357,-2.566 -6.785,-6.803 -2.986,-29.245 -5.972,-58.492 -8.959,-87.738 -0.429,-4.239 1.686,-7.674 4.92,-8.018 4.285,-0.451 8.571,-0.921 12.856,-1.407 20.613,-2.361 32.845,12.915 37.457,47.278 4.619,34.416 -3.817,52.669 -25.842,55.195" />
      </g>
      <g
         transform="matrix(0.35277777,0,0,-0.35277777,-107.84579,77.873705)"
         id="g1264">
        <path
           inkscape:connector-curvature="0"
           id="path1266"
           style="fill:#eb4072;fill-opacity:1;fill-rule:nonzero;stroke:none"
           d="M 0,0 C 4.086,9.901 8.217,19.787 12.395,29.659 13.453,18.985 14.463,8.313 15.424,-2.359 10.287,-1.549 5.145,-0.763 0,0 m 21.937,53.286 c -0.394,3.386 -2.269,5.662 -5.011,6.081 -3.727,0.57 -5.674,-2.462 -6.516,-4.348 -12.25,-28.462 -24.111,-57.037 -35.58,-85.715 -0.416,-0.921 -0.666,-2.195 -0.742,-2.76 -0.563,-4.149 1.484,-7.734 4.652,-8.175 2.625,-0.367 4.963,1.352 6.256,4.587 3.223,7.877 6.475,15.747 9.758,23.606 7.225,-1.056 14.445,-2.16 21.66,-3.312 0.748,-8.52 1.465,-17.037 2.152,-25.555 0.262,-3.402 1.989,-5.683 4.629,-6.125 3.264,-0.543 6.262,2.197 6.981,6.396 0.092,0.532 0.205,1.763 0.121,2.792 -2.385,30.827 -5.17,61.673 -8.36,92.528" />
      </g>
      <g
         transform="matrix(0.35277777,0,0,-0.35277777,-71.551692,62.331657)"
         id="g1268">
        <path
           inkscape:connector-curvature="0"
           id="path1270"
           style="fill:#eb4072;fill-opacity:1;fill-rule:nonzero;stroke:none"
           d="m 0,0 c -3.293,0.671 -6.504,-1.971 -7.307,-5.995 -4.048,-20.238 -8.097,-40.477 -12.148,-60.716 -4.908,23.293 -10.18,46.581 -15.818,69.854 -0.006,0.022 -0.01,0.042 -0.016,0.063 -0.633,2.349 -2.338,4.031 -4.445,4.413 -3.303,0.596 -6.448,-2.117 -7.161,-6.159 -5.263,-29.812 -10.525,-59.625 -15.789,-89.436 -0.711,-4.044 1.166,-7.638 4.268,-8.197 3.102,-0.558 6.111,2.157 6.857,6.194 3.713,20.239 7.426,40.477 11.141,60.715 5.398,-23.167 10.438,-46.347 15.115,-69.531 0.01,-0.049 0.022,-0.097 0.033,-0.145 0.819,-3.095 2.704,-4.087 4.141,-4.383 3.199,-0.653 6.256,1.994 7.123,6.16 6.129,29.597 12.258,59.192 18.387,88.789 C 5.215,-4.353 3.293,-0.669 0,0" />
      </g>
    </g>
  </g>
</svg>
