<?xml version="1.0" encoding="UTF-8" standalone="no"?>
<!-- Created with Inkscape (http://www.inkscape.org/) -->

<svg
   xmlns:dc="http://purl.org/dc/elements/1.1/"
   xmlns:cc="http://creativecommons.org/ns#"
   xmlns:rdf="http://www.w3.org/1999/02/22-rdf-syntax-ns#"
   xmlns:svg="http://www.w3.org/2000/svg"
   xmlns="http://www.w3.org/2000/svg"
   xmlns:sodipodi="http://sodipodi.sourceforge.net/DTD/sodipodi-0.dtd"
   xmlns:inkscape="http://www.inkscape.org/namespaces/inkscape"
   width="66.787544mm"
   height="36.289936mm"
   viewBox="0 0 66.787544 36.289936"
   version="1.1"
   id="svg7142"
   inkscape:version="0.92.3 (2405546, 2018-03-11)"
   sodipodi:docname="previous.svg">
  <defs
     id="defs7136" />
  <sodipodi:namedview
     id="base"
     pagecolor="#ffffff"
     bordercolor="#666666"
     borderopacity="1.0"
     inkscape:pageopacity="0.0"
     inkscape:pageshadow="2"
     inkscape:zoom="0.7"
     inkscape:cx="206.21266"
     inkscape:cy="-334.27773"
     inkscape:document-units="mm"
     inkscape:current-layer="layer1"
     showgrid="false"
     fit-margin-top="0"
     fit-margin-left="0"
     fit-margin-right="0"
     fit-margin-bottom="0"
     inkscape:window-width="1920"
     inkscape:window-height="1075"
     inkscape:window-x="0"
     inkscape:window-y="0"
     inkscape:window-maximized="0" />
  <metadata
     id="metadata7139">
    <rdf:RDF>
      <cc:Work
         rdf:about="">
        <dc:format>image/svg+xml</dc:format>
        <dc:type
           rdf:resource="http://purl.org/dc/dcmitype/StillImage" />
        <dc:title></dc:title>
      </cc:Work>
    </rdf:RDF>
  </metadata>
  <g
     inkscape:label="Layer 1"
     inkscape:groupmode="layer"
     id="layer1"
     transform="translate(-40.689566,-24.099082)">
    <path
       inkscape:connector-curvature="0"
       id="path2804"
       style="fill:#ffffff;fill-opacity:1;fill-rule:nonzero;stroke:none;stroke-width:0.35277775"
       d="m 82.892702,58.977939 c 3.87949,0 8.43456,-0.82268 13.53855,-2.445457 0.16686,-0.05574 3.598328,-1.240015 6.328128,-4.830585 4.4831,-5.897387 3.59269,-13.5763 2.05599,-18.979798 l -0.31009,-1.090083 -1.13101,0.06703 c -0.41487,0.02469 -0.84349,0.03775 -1.27494,0.03775 -3.756378,0 -9.808988,-0.944034 -17.311858,-5.439128 l -0.45509,-0.272697 -0.52175,0.0949 c -0.0952,0.01729 -9.62731,1.72473 -19.63526,1.72473 -5.7778,0 -10.57487,-0.559505 -14.25857,-1.663347 -1.48626,-0.445206 -2.777425,-0.670983 -3.836465,-0.670983 -3.00391,0 -3.72569,1.788583 -3.89643,2.557638 -0.62124,2.798586 2.41617,6.613878 5.44406,8.027811 4.077415,1.904295 9.988555,4.031897 15.835855,5.135033 -0.0843,1.053748 -0.12171,4.012848 1.76635,6.302728 0.79552,0.964495 1.81399,1.681692 3.04483,2.147006 l 0.0332,0.191911 c 0.0155,0.09102 1.72191,9.105548 14.58454,9.105548" />
    <path
       inkscape:connector-curvature="0"
       id="path2808"
       style="fill:#eb4072;fill-opacity:1;fill-rule:nonzero;stroke:none;stroke-width:0.35277775"
       d="m 46.079807,24.099082 h 2.6e-4 v 0 c 1.21215,0 2.599275,0.239183 4.240045,0.73025 3.55247,1.064683 8.21372,1.60408 13.85393,1.60408 9.8933,0 19.28884,-1.685219 19.38232,-1.7018 l 1.04458,-0.189441 0.91016,0.545041 c 7.22639,4.329642 13.00842,5.238397 16.586998,5.238397 0.40322,0 0.80398,-0.01164 1.19062,-0.03492 l 2.26236,-0.134408 0.62019,2.179461 c 1.62454,5.713236 2.54635,13.858875 -2.28953,20.219812 -2.93899,3.866091 -6.575418,5.171016 -6.980408,5.306835 l -0.0219,0.0078 -0.0222,0.0067 c -5.24228,1.666875 -9.94128,2.512129 -13.96577,2.512129 -3.93735,0 -9.40717,-0.846667 -13.11028,-4.881033 -1.76071,-1.918759 -2.47156,-3.874911 -2.73332,-4.827059 -1.35079,-0.645582 -2.28283,-1.491896 -2.90795,-2.249662 -1.66899,-2.024592 -2.06728,-4.424892 -2.11702,-6.031795 -7.21219,-1.516591 -13.44824,-4.303536 -14.993055,-5.024966 -3.58212,-1.672926 -7.01923,-6.032554 -6.22477,-9.611838 0.19085,-0.859348 1.13488,-3.662873 5.27332,-3.663578 m 0,2.822222 c -5.01297,0 -1.80975,6.048727 2.144895,7.896225 4.59845,2.147711 14.29279,5.756627 22.54214,5.756627 0.0878,0 0.17604,0 0.26388,0 0,0 -0.43639,0.727075 -3.05858,0.727075 -0.80293,0 -1.81011,-0.06844 -3.07199,-0.245886 0,0 -1.14089,7.519811 6.73735,7.843661 1.45556,0.05997 2.73967,0.08184 3.8488,0.08184 3.37679,0 5.13045,-0.207434 5.13045,-0.207434 0,0 -2.56999,1.064684 -7.26052,1.064684 -1.10384,0 -2.32551,-0.05927 -3.6583,-0.204611 0,0 1.37089,7.934677 13.19424,7.934677 3.42124,0 7.71948,-0.664985 13.11098,-2.379133 0,0 12.535258,-4.213225 7.453838,-22.079655 -0.4191,0.02469 -0.87171,0.03986 -1.35819,0.03986 -4.030488,0 -10.318038,-1.014942 -18.037168,-5.639506 0,0 -9.62484,1.747309 -19.88679,1.747309 -5.09799,0 -10.35403,-0.431095 -14.66356,-1.722614 -1.423465,-0.426508 -2.553415,-0.611717 -3.431475,-0.611717" />
  </g>
</svg>
