<?xml version="1.0" encoding="UTF-8" standalone="no"?>
<!-- Created with Inkscape (http://www.inkscape.org/) -->

<svg
   xmlns:dc="http://purl.org/dc/elements/1.1/"
   xmlns:cc="http://creativecommons.org/ns#"
   xmlns:rdf="http://www.w3.org/1999/02/22-rdf-syntax-ns#"
   xmlns:svg="http://www.w3.org/2000/svg"
   xmlns="http://www.w3.org/2000/svg"
   xmlns:sodipodi="http://sodipodi.sourceforge.net/DTD/sodipodi-0.dtd"
   xmlns:inkscape="http://www.inkscape.org/namespaces/inkscape"
   width="42.701988mm"
   height="42.702339mm"
   viewBox="0 0 42.701988 42.702339"
   version="1.1"
   id="svg5377"
   inkscape:version="0.92.3 (2405546, 2018-03-11)"
   sodipodi:docname="twitter.svg">
  <defs
     id="defs5371" />
  <sodipodi:namedview
     id="base"
     pagecolor="#ffffff"
     bordercolor="#666666"
     borderopacity="1.0"
     inkscape:pageopacity="0.0"
     inkscape:pageshadow="2"
     inkscape:zoom="1.979899"
     inkscape:cx="37.115709"
     inkscape:cy="133.97619"
     inkscape:document-units="mm"
     inkscape:current-layer="layer1"
     showgrid="false"
     fit-margin-top="0"
     fit-margin-left="0"
     fit-margin-right="0"
     fit-margin-bottom="0"
     inkscape:window-width="1920"
     inkscape:window-height="1075"
     inkscape:window-x="0"
     inkscape:window-y="0"
     inkscape:window-maximized="0" />
  <metadata
     id="metadata5374">
    <rdf:RDF>
      <cc:Work
         rdf:about="">
        <dc:format>image/svg+xml</dc:format>
        <dc:type
           rdf:resource="http://purl.org/dc/dcmitype/StillImage" />
        <dc:title></dc:title>
      </cc:Work>
    </rdf:RDF>
  </metadata>
  <g
     inkscape:label="Layer 1"
     inkscape:groupmode="layer"
     id="layer1"
     transform="translate(-110.18472,-17.869068)">
    <path
       inkscape:connector-curvature="0"
       id="path1172"
       style="fill:#ffffff;fill-opacity:1;fill-rule:nonzero;stroke:none;stroke-width:0.35277778"
       d="m 143.39617,31.862986 c -0.87312,0.388761 -1.8108,0.649464 -2.79435,0.766586 1.00365,-0.601839 1.77483,-1.554692 2.13819,-2.692047 -0.9398,0.557389 -1.98155,0.963436 -3.08928,1.181453 -0.88829,-0.94615 -2.15371,-1.537406 -3.55176,-1.537406 -2.68782,0 -4.86799,2.179461 -4.86799,4.866922 0,0.380647 0.0434,0.752122 0.12736,1.109486 -4.0446,-0.203905 -7.63129,-2.141713 -10.03089,-5.085291 -0.41804,0.718255 -0.65934,1.554339 -0.65934,2.447219 0,1.687689 0.85972,3.176764 2.16641,4.050595 -0.79833,-0.02505 -1.5494,-0.245181 -2.20557,-0.6096 v 0.06174 c 0,2.356908 1.67782,4.323997 3.90384,4.772025 -0.40922,0.111125 -0.8382,0.171097 -1.28164,0.171097 -0.31397,0 -0.61912,-0.03069 -0.91687,-0.08855 0.61948,1.933927 2.41759,3.340453 4.54695,3.380318 -1.66616,1.304218 -3.76308,2.0828 -6.04414,2.0828 -0.39264,0 -0.77999,-0.02363 -1.16169,-0.06738 2.15512,1.380773 4.71346,2.18581 7.46019,2.18581 8.95138,0 13.84617,-7.415035 13.84617,-13.845821 0,-0.210609 -0.004,-0.42157 -0.013,-0.629356 0.95004,-0.685447 1.77448,-1.543403 2.42747,-2.520597" />
  </g>
</svg>
