<?xml version="1.0" encoding="UTF-8" standalone="no"?>
<!-- Created with Inkscape (http://www.inkscape.org/) -->

<svg
   xmlns:dc="http://purl.org/dc/elements/1.1/"
   xmlns:cc="http://creativecommons.org/ns#"
   xmlns:rdf="http://www.w3.org/1999/02/22-rdf-syntax-ns#"
   xmlns:svg="http://www.w3.org/2000/svg"
   xmlns="http://www.w3.org/2000/svg"
   xmlns:sodipodi="http://sodipodi.sourceforge.net/DTD/sodipodi-0.dtd"
   xmlns:inkscape="http://www.inkscape.org/namespaces/inkscape"
   width="338"
   height="338"
   viewBox="0 0 89.429169 89.429163"
   version="1.1"
   id="svg883"
   inkscape:version="0.92.3 (2405546, 2018-03-11)"
   sodipodi:docname="favicon.svg"
   inkscape:export-filename="/home/jj/dev/lamarziendan/lamarziendan/static/favicon.png"
   inkscape:export-xdpi="9.1338673"
   inkscape:export-ydpi="9.1338673">
  <defs
     id="defs877" />
  <sodipodi:namedview
     id="base"
     pagecolor="#ffffff"
     bordercolor="#666666"
     borderopacity="1.0"
     inkscape:pageopacity="0.0"
     inkscape:pageshadow="2"
     inkscape:zoom="0.98994949"
     inkscape:cx="-14.944341"
     inkscape:cy="175.40444"
     inkscape:document-units="mm"
     inkscape:current-layer="layer1"
     showgrid="false"
     fit-margin-top="0"
     fit-margin-left="0"
     fit-margin-right="0"
     fit-margin-bottom="0"
     units="px"
     inkscape:window-width="1920"
     inkscape:window-height="1075"
     inkscape:window-x="0"
     inkscape:window-y="0"
     inkscape:window-maximized="0" />
  <metadata
     id="metadata880">
    <rdf:RDF>
      <cc:Work
         rdf:about="">
        <dc:format>image/svg+xml</dc:format>
        <dc:type
           rdf:resource="http://purl.org/dc/dcmitype/StillImage" />
        <dc:title></dc:title>
      </cc:Work>
    </rdf:RDF>
  </metadata>
  <g
     inkscape:label="Layer 1"
     inkscape:groupmode="layer"
     id="layer1"
     transform="translate(-45.873669,-77.959497)">
    <g
       id="g1220"
       transform="matrix(0.35277777,0,0,-0.35277777,92.907672,139.72299)">
      <path
         d="m 0,0 -2.58,-123.806 c -1.01,-0.028 -1.99,-0.077 -2.928,-0.157 -3.078,-0.208 -5.902,-0.577 -8.306,-1.095 -4.471,-0.965 -6.95,-2.336 -6.985,-3.861 -0.035,-1.525 2.383,-3.007 6.805,-4.171 0.058,-0.015 0.121,-0.031 0.183,-0.047 l -0.416,-18.561 c -0.025,-1.074 1.664,-2.114 4.756,-2.926 3.067,-0.807 7.155,-1.305 11.512,-1.402 4.357,-0.098 8.465,0.216 11.564,0.884 3.125,0.674 4.86,1.637 4.885,2.711 l 0.365,16.333 c -4.855,-0.176 -9.902,0.452 -12.207,0.793 0.063,0.067 0.127,0.135 0.188,0.205 4.605,0.102 8.853,0.537 12.256,1.269 0.135,0.03 0.269,0.06 0.404,0.089 0.072,0.016 0.143,0.035 0.215,0.052 0.057,0.013 0.117,0.026 0.174,0.04 0.095,0.024 0.189,0.046 0.285,0.07 0.029,0.008 0.06,0.015 0.09,0.022 0.113,0.028 0.222,0.058 0.33,0.086 0.012,0.004 0.021,0.006 0.033,0.009 0.479,0.127 0.928,0.259 1.348,0.397 2.642,0.87 4.078,1.939 4.105,3.096 0.033,1.526 -2.385,3.007 -6.805,4.171 -2.376,0.625 -5.183,1.12 -8.25,1.466 0,0 -1.175,0.112 -2.726,0.235 L 10.9,0.975"
         style="fill:#eb4072;fill-opacity:1;fill-rule:nonzero;stroke:none"
         id="path1222"
         inkscape:connector-curvature="0" />
    </g>
    <g
       id="g1224"
       transform="matrix(0.35277777,0,0,-0.35277777,98.427413,129.72707)">
      <path
         d="m 0,0 0.861,-10.508 -10.289,3.937 -10.439,-3.527 1.275,10.465 -7.291,9.376 11.057,1.482 5.955,10.371 5.535,-10.597 10.992,-1.917 z m 95.762,-8.273 c 4.164,8.259 5.652,16.958 5.652,16.958 0,0 -1.56,2.954 -11.652,-2.757 C 81.406,1.202 78.145,-14.166 77.271,-19.315 L 61.775,-2.953 c -1.298,1.371 -3.214,1.972 -5.064,1.585 l -32.854,-6.87 c 0.881,6.302 -0.67,11.46 -0.67,11.46 62.448,6.88 60.557,34.316 60.557,34.316 -22.715,-10.487 -25.308,-9.531 -25.308,-9.531 0,0 11.418,5.291 21.96,11.29 21.53,12.249 14.37,30.654 14.37,30.654 C 76.02,55.515 68.176,52.099 68.176,52.099 c 15.258,7.742 23.34,20.447 29.779,28.826 6.432,8.383 5.461,26.387 -9.271,12.096 C 68.643,73.579 31.949,63.608 31.949,63.608 21.057,45.921 9.146,38.229 1.809,34.957 l -1.055,5.148 -4.473,-2.951 -0.398,1.952 -2.436,-0.499 c 1.401,1.816 1.487,5.124 1.487,5.124 -0.358,-0.957 -1.561,-2.231 -2.809,-3.366 0.203,1.75 0.305,3.47 0.289,5.128 -0.068,7.462 -1.424,12.933 -5.475,17.441 -1.611,1.79 -3.527,3.387 -5.554,5.077 -6.932,5.775 -9.188,8.56 -8.026,12.673 0.973,3.445 2.996,8.85 7.186,15.922 1.941,1.229 7.443,5.123 13.066,12.831 4.116,5.639 3.651,17.896 -3.451,23.173 -7.101,5.276 -16.771,3.253 -16.771,3.253 0,0 -7.442,14.356 -22.723,10.017 0,0 9.121,-12.801 11.568,-17.321 l 16.245,-1.176 c 0,0 -19.895,-12.695 -32.405,3.702 0,0 -1.09,-21.061 20.793,-13.746 0,0 -1.217,-7.591 -0.189,-12.816 -4.981,-8.456 -7.463,-15.159 -8.69,-19.501 -1.877,-6.654 -0.851,-13.012 3.051,-18.895 2.897,-4.368 6.904,-7.704 10.125,-10.386 1.572,-1.31 3.059,-2.549 3.897,-3.48 2.146,-2.391 1.996,-9.144 0.015,-15.695 -1.763,0.578 -3.689,1.352 -4.478,2.183 0,0 1.379,-3.01 3.384,-4.127 l -2.437,-0.498 0.4,-1.955 -5.275,0.956 1.117,-5.451 c -7.435,-0.104 -22.385,1.707 -40.502,14.502 l 0.018,-0.09 c 0,0 -37.657,-5.253 -63.731,4.744 -19.164,7.352 -12.978,-9.583 -3.767,-14.763 9.211,-5.176 21.638,-13.68 38.713,-14.802 0,0 -8.557,0.058 -31.469,5.964 0,0 0.65,-19.739 25.262,-22.54 12.052,-1.371 24.628,-1.748 24.628,-1.748 0,0 -2.009,-1.898 -27.015,-1.186 0,0 8.566,-27.397 69.162,-7.726 l 0.166,0.128 c 0,0 2.004,-20.423 22.018,-22.172 4.839,-0.058 8.703,0.438 10.927,0.502 0.83,0.132 1.67,0.281 2.53,0.455 l 3.843,0.788 c 2.108,0.432 4.076,0.955 5.912,1.552 0,0 3.987,1.406 5.637,2.241 3.5,1.677 6.156,3.728 8.166,5.959 l 37.682,7.881 16.418,-17.339 c 0.984,-1.04 2.283,-1.606 3.605,-1.688 0.783,-0.05 1.571,0.075 2.313,0.362 19.531,1.963 25.945,26.842 25.945,26.842 z"
         style="fill:#eb4072;fill-opacity:1;fill-rule:nonzero;stroke:none"
         id="path1226"
         inkscape:connector-curvature="0" />
    </g>
  </g>
</svg>
