<?xml version="1.0" encoding="UTF-8" standalone="no"?>
<!-- Created with Inkscape (http://www.inkscape.org/) -->

<svg
   xmlns:dc="http://purl.org/dc/elements/1.1/"
   xmlns:cc="http://creativecommons.org/ns#"
   xmlns:rdf="http://www.w3.org/1999/02/22-rdf-syntax-ns#"
   xmlns:svg="http://www.w3.org/2000/svg"
   xmlns="http://www.w3.org/2000/svg"
   xmlns:sodipodi="http://sodipodi.sourceforge.net/DTD/sodipodi-0.dtd"
   xmlns:inkscape="http://www.inkscape.org/namespaces/inkscape"
   width="42.702339mm"
   height="42.702339mm"
   viewBox="0 0 42.702339 42.702339"
   version="1.1"
   id="svg6565"
   inkscape:version="0.92.3 (2405546, 2018-03-11)"
   sodipodi:docname="linkedin.svg">
  <defs
     id="defs6559" />
  <sodipodi:namedview
     id="base"
     pagecolor="#ffffff"
     bordercolor="#666666"
     borderopacity="1.0"
     inkscape:pageopacity="0.0"
     inkscape:pageshadow="2"
     inkscape:zoom="1.979899"
     inkscape:cx="192.00783"
     inkscape:cy="76.599618"
     inkscape:document-units="mm"
     inkscape:current-layer="layer1"
     showgrid="false"
     fit-margin-top="0"
     fit-margin-left="0"
     fit-margin-right="0"
     fit-margin-bottom="0"
     inkscape:window-width="1920"
     inkscape:window-height="1075"
     inkscape:window-x="0"
     inkscape:window-y="0"
     inkscape:window-maximized="0" />
  <metadata
     id="metadata6562">
    <rdf:RDF>
      <cc:Work
         rdf:about="">
        <dc:format>image/svg+xml</dc:format>
        <dc:type
           rdf:resource="http://purl.org/dc/dcmitype/StillImage" />
        <dc:title></dc:title>
      </cc:Work>
    </rdf:RDF>
  </metadata>
  <g
     inkscape:label="Layer 1"
     inkscape:groupmode="layer"
     id="layer1"
     transform="translate(-6.6190681,-39.791687)">
    <path
       inkscape:connector-curvature="0"
       id="path1148"
       style="fill:#ffffff;fill-opacity:1;fill-rule:nonzero;stroke:none;stroke-width:0.35277778"
       d="m 37.867489,70.23214 h -4.37444 v -6.389864 c 0,-1.67393 -0.685091,-2.813755 -2.190751,-2.813755 -1.15111,0 -1.78858,0.769761 -2.08915,1.514122 -0.11183,0.263878 -0.0942,0.635705 -0.0942,1.006122 v 6.683375 h -4.33317 c 0,0 0.054,-11.320639 0,-12.350397 h 4.33317 v 1.940278 c 0.25718,-0.849842 1.64077,-2.056695 3.85233,-2.056695 2.73968,0 4.896211,1.777295 4.896211,5.599995 z M 20.401468,56.337988 h -0.0272 c -1.3963,0 -2.30117,-0.944739 -2.30117,-2.140303 0,-1.219906 0.93098,-2.143831 2.3562,-2.143831 1.42346,0 2.29976,0.922514 2.32657,2.141009 0,1.196975 -0.90311,2.143125 -2.35444,2.143125 m 2.02847,13.894152 h -3.85974 V 57.881743 h 3.85974 z" />
  </g>
</svg>
